  0
SECTION
  2
HEADER
  9
$ACADVER
  1
AC1014
  9
$HANDSEED
  5
FFFF
  9
$MEASUREMENT
 70
     1
  0
ENDSEC
  0
SECTION
  2
TABLES
  0
TABLE
  2
VPORT
  5
8
330
0
100
AcDbSymbolTable
 70
     4
  0
VPORT
  5
2E
330
8
100
AcDbSymbolTableRecord
100
AcDbViewportTableRecord
  2
*ACTIVE
 70
     0
 10
0.0
 20
0.0
 11
1.0
 21
1.0
 12
210.0
 22
148.5
 13
0.0
 23
0.0
 14
10.0
 24
10.0
 15
10.0
 25
10.0
 16
0.0
 26
0.0
 36
1.0
 17
0.0
 27
0.0
 37
0.0
 40
341.0
 41
1.24
 42
50.0
 43
0.0
 44
0.0
 50
0.0
 51
0.0
 71
     0
 72
   100
 73
     1
 74
     3
 75
     0
 76
     0
 77
     0
 78
     0
  0
ENDTAB
  0
TABLE
  2
LTYPE
  5
5
330
0
100
AcDbSymbolTable
 70
     1
  0
LTYPE
  5
14
330
5
100
AcDbSymbolTableRecord
100
AcDbLinetypeTableRecord
  2
BYBLOCK
 70
     0
  3

 72
    65
 73
     0
 40
0.0
  0
LTYPE
  5
15
330
5
100
AcDbSymbolTableRecord
100
AcDbLinetypeTableRecord
  2
BYLAYER
 70
     0
  3

 72
    65
 73
     0
 40
0.0
  0
LTYPE
  5
16
330
5
100
AcDbSymbolTableRecord
100
AcDbLinetypeTableRecord
  2
CONTINUOUS
 70
     0
  3
Solid line
 72
    65
 73
     0
 40
0.0
  0
ENDTAB
  0
TABLE
  2
LAYER
  5
2
100
AcDbSymbolTable
 70
2
  0
LAYER
  5
50
100
AcDbSymbolTableRecord
100
AcDbLayerTableRecord
  2
0
 70
0
  6
CONTINUOUS
  0
LAYER
  5
51
100
AcDbSymbolTableRecord
100
AcDbLayerTableRecord
  2
Layer_1
 70
0
  6
CONTINUOUS
  0
ENDTAB
  0
TABLE
  2
STYLE
  5
3
330
0
100
AcDbSymbolTable
 70
     1
  0
STYLE
  5
11
330
3
100
AcDbSymbolTableRecord
100
AcDbTextStyleTableRecord
  2
STANDARD
 70
     0
 40
0.0
 41
1.0
 50
0.0
 71
     0
 42
2.5
  3
txt
  4

  0
ENDTAB
  0
TABLE
  2
VIEW
  5
6
330
0
100
AcDbSymbolTable
 70
     0
  0
ENDTAB
  0
TABLE
  2
UCS
  5
7
330
0
100
AcDbSymbolTable
 70
     0
  0
ENDTAB
  0
TABLE
  2
APPID
  5
9
330
0
100
AcDbSymbolTable
 70
     2
  0
APPID
  5
12
330
9
100
AcDbSymbolTableRecord
100
AcDbRegAppTableRecord
  2
ACAD
 70
     0
  0
ENDTAB
  0
TABLE
  2
DIMSTYLE
  5
A
330
0
100
AcDbSymbolTable
 70
     1
  0
DIMSTYLE
105
27
330
A
100
AcDbSymbolTableRecord
100
AcDbDimStyleTableRecord
  2
ISO-25
 70
     0
  3

  4

  5

  6

  7

 40
1.0
 41
2.5
 42
0.625
 43
3.75
 44
1.25
 45
0.0
 46
0.0
 47
0.0
 48
0.0
140
2.5
141
2.5
142
0.0
143
0.03937007874016
144
1.0
145
0.0
146
1.0
147
0.625
 71
     0
 72
     0
 73
     0
 74
     0
 75
     0
 76
     0
 77
     1
 78
     8
170
     0
171
     3
172
     1
173
     0
174
     0
175
     0
176
     0
177
     0
178
     0
270
     2
271
     2
272
     2
273
     2
274
     3
340
11
275
     0
280
     0
281
     0
282
     0
283
     0
284
     8
285
     0
286
     0
287
     3
288
     0
  0
ENDTAB
  0
TABLE
  2
BLOCK_RECORD
  5
1
330
0
100
AcDbSymbolTable
 70
     1
  0
BLOCK_RECORD
  5
1F
330
1
100
AcDbSymbolTableRecord
100
AcDbBlockTableRecord
  2
*MODEL_SPACE
  0
BLOCK_RECORD
  5
1B
330
1
100
AcDbSymbolTableRecord
100
AcDbBlockTableRecord
  2
*PAPER_SPACE
  0
ENDTAB
  0
ENDSEC
  0
SECTION
  2
BLOCKS
  0
BLOCK
  5
20
330
1F
100
AcDbEntity
  8
0
100
AcDbBlockBegin
  2
*MODEL_SPACE
 70
     0
 10
0.0
 20
0.0
 30
0.0
  3
*MODEL_SPACE
  1

  0
ENDBLK
  5
21
330
1F
100
AcDbEntity
  8
0
100
AcDbBlockEnd
  0
BLOCK
  5
1C
330
1B
100
AcDbEntity
 67
     1
  8
0
100
AcDbBlockBegin
  2
*PAPER_SPACE
  1

  0
ENDBLK
  5
1D
330
1B
100
AcDbEntity
 67
     1
  8
0
100
AcDbBlockEnd
  0
ENDSEC
  0
SECTION
  2
ENTITIES
  0
SPLINE
  5
100
100
AcDbEntity
  8
Layer_1
 62
7
100
AcDbSpline
 70
0
 71
3
 72
19
 73
15
 74
13
 40
0.000000
 40
0.000000
 40
0.000000
 40
0.000000
 40
0.913013
 40
1.798950
 40
2.711962
 40
3.624979
 40
4.510917
 40
5.423933
 40
6.336946
 40
7.222882
 40
8.135894
 40
9.048911
 40
9.934849
 40
10.847865
 40
10.847865
 40
10.847865
 40
10.847865
 10
38.975355
 20
218.498622
 30
0.0
 10
39.023317
 20
218.190792
 30
0.0
 10
39.117820
 20
217.584263
 30
0.0
 10
39.812923
 20
216.916449
 30
0.0
 10
40.719732
 20
216.668907
 30
0.0
 10
41.636134
 20
216.916180
 30
0.0
 10
42.303441
 20
217.583795
 30
0.0
 10
42.551208
 20
218.498094
 30
0.0
 10
42.303798
 20
219.412488
 30
0.0
 10
41.636756
 20
220.080364
 30
0.0
 10
40.720449
 20
220.327992
 30
0.0
 10
39.813544
 20
220.080806
 30
0.0
 10
39.118174
 20
219.413264
 30
0.0
 10
39.023436
 20
218.806769
 30
0.0
 10
38.975355
 20
218.498958
 30
0.0
 11
38.975355
 21
218.498622
 31
0.0
 11
39.213668
 21
217.617259
 31
0.0
 11
39.840042
 21
216.990729
 31
0.0
 11
40.721345
 21
216.752200
 31
0.0
 11
41.602723
 21
216.990470
 31
0.0
 11
42.229283
 21
217.616816
 31
0.0
 11
42.467855
 21
218.498111
 31
0.0
 11
42.229627
 21
219.379497
 31
0.0
 11
41.603314
 21
220.006086
 31
0.0
 11
40.722034
 21
220.244700
 31
0.0
 11
39.840633
 21
220.006514
 31
0.0
 11
39.214011
 21
219.380230
 31
0.0
 11
38.975355
 21
218.498958
 31
0.0
  0
SPLINE
  5
101
100
AcDbEntity
  8
Layer_1
 62
7
100
AcDbSpline
 70
0
 71
3
 72
19
 73
15
 74
13
 40
0.000000
 40
0.000000
 40
0.000000
 40
0.000000
 40
0.913016
 40
1.798953
 40
2.711966
 40
3.624983
 40
4.510920
 40
5.423936
 40
6.336947
 40
7.222884
 40
8.135900
 40
9.048916
 40
9.934853
 40
10.847868
 40
10.847868
 40
10.847868
 40
10.847868
 10
24.941866
 20
229.484133
 30
0.0
 10
24.989827
 20
229.176302
 30
0.0
 10
25.084328
 20
228.569771
 30
0.0
 10
25.779433
 20
227.901956
 30
0.0
 10
26.686243
 20
227.654416
 30
0.0
 10
27.602645
 20
227.901688
 30
0.0
 10
28.269951
 20
228.569304
 30
0.0
 10
28.517720
 20
229.483601
 30
0.0
 10
28.270309
 20
230.397996
 30
0.0
 10
27.603265
 20
231.065871
 30
0.0
 10
26.686958
 20
231.313501
 30
0.0
 10
25.780052
 20
231.066313
 30
0.0
 10
25.084685
 20
230.398772
 30
0.0
 10
24.989947
 20
229.792278
 30
0.0
 10
24.941866
 20
229.484466
 30
0.0
 11
24.941866
 21
229.484133
 31
0.0
 11
25.180178
 21
228.602767
 31
0.0
 11
25.806552
 21
227.976237
 31
0.0
 11
26.687856
 21
227.737708
 31
0.0
 11
27.569233
 21
227.975979
 31
0.0
 11
28.195793
 21
228.602324
 31
0.0
 11
28.434366
 21
229.483619
 31
0.0
 11
28.196139
 21
230.365003
 31
0.0
 11
27.569824
 21
230.991593
 31
0.0
 11
26.688541
 21
231.230208
 31
0.0
 11
25.807141
 21
230.992021
 31
0.0
 11
25.180522
 21
230.365738
 31
0.0
 11
24.941866
 21
229.484466
 31
0.0
  0
SPLINE
  5
102
100
AcDbEntity
  8
Layer_1
 62
7
100
AcDbSpline
 70
0
 71
3
 72
19
 73
15
 74
13
 40
0.000000
 40
0.000000
 40
0.000000
 40
0.000000
 40
0.913016
 40
1.798953
 40
2.711966
 40
3.624983
 40
4.510921
 40
5.423936
 40
6.336948
 40
7.222885
 40
8.135901
 40
9.048915
 40
9.934852
 40
10.847867
 40
10.847867
 40
10.847867
 40
10.847867
 10
60.946366
 20
229.484133
 30
0.0
 10
60.994328
 20
229.176302
 30
0.0
 10
61.088829
 20
228.569771
 30
0.0
 10
61.783934
 20
227.901956
 30
0.0
 10
62.690743
 20
227.654416
 30
0.0
 10
63.607146
 20
227.901688
 30
0.0
 10
64.274453
 20
228.569303
 30
0.0
 10
64.522220
 20
229.483602
 30
0.0
 10
64.274807
 20
230.397995
 30
0.0
 10
63.607764
 20
231.065870
 30
0.0
 10
62.691457
 20
231.313501
 30
0.0
 10
61.784552
 20
231.066313
 30
0.0
 10
61.089185
 20
230.398772
 30
0.0
 10
60.994447
 20
229.792278
 30
0.0
 10
60.946366
 20
229.484466
 30
0.0
 11
60.946366
 21
229.484133
 31
0.0
 11
61.184678
 21
228.602767
 31
0.0
 11
61.811053
 21
227.976237
 31
0.0
 11
62.692356
 21
227.737708
 31
0.0
 11
63.573734
 21
227.975979
 31
0.0
 11
64.200294
 21
228.602324
 31
0.0
 11
64.438866
 21
229.483619
 31
0.0
 11
64.200637
 21
230.365003
 31
0.0
 11
63.574323
 21
230.991593
 31
0.0
 11
62.693039
 21
231.230208
 31
0.0
 11
61.811641
 21
230.992021
 31
0.0
 11
61.185022
 21
230.365738
 31
0.0
 11
60.946366
 21
229.484466
 31
0.0
  0
SPLINE
  5
103
100
AcDbEntity
  8
Layer_1
 62
7
100
AcDbSpline
 70
0
 71
3
 72
19
 73
15
 74
13
 40
0.000000
 40
0.000000
 40
0.000000
 40
0.000000
 40
0.913016
 40
1.798953
 40
2.711966
 40
3.624983
 40
4.510921
 40
5.423936
 40
6.336948
 40
7.222885
 40
8.135901
 40
9.048915
 40
9.934852
 40
10.847867
 40
10.847867
 40
10.847867
 40
10.847867
 10
52.945366
 20
257.487633
 30
0.0
 10
52.993328
 20
257.179802
 30
0.0
 10
53.087829
 20
256.573271
 30
0.0
 10
53.782934
 20
255.905456
 30
0.0
 10
54.689743
 20
255.657916
 30
0.0
 10
55.606146
 20
255.905188
 30
0.0
 10
56.273453
 20
256.572803
 30
0.0
 10
56.521220
 20
257.487102
 30
0.0
 10
56.273807
 20
258.401495
 30
0.0
 10
55.606764
 20
259.069370
 30
0.0
 10
54.690457
 20
259.317001
 30
0.0
 10
53.783552
 20
259.069813
 30
0.0
 10
53.088185
 20
258.402272
 30
0.0
 10
52.993447
 20
257.795778
 30
0.0
 10
52.945366
 20
257.487966
 30
0.0
 11
52.945366
 21
257.487633
 31
0.0
 11
53.183678
 21
256.606267
 31
0.0
 11
53.810053
 21
255.979737
 31
0.0
 11
54.691356
 21
255.741208
 31
0.0
 11
55.572734
 21
255.979479
 31
0.0
 11
56.199294
 21
256.605824
 31
0.0
 11
56.437866
 21
257.487119
 31
0.0
 11
56.199637
 21
258.368503
 31
0.0
 11
55.573323
 21
258.995093
 31
0.0
 11
54.692039
 21
259.233708
 31
0.0
 11
53.810641
 21
258.995521
 31
0.0
 11
53.184022
 21
258.369238
 31
0.0
 11
52.945366
 21
257.487966
 31
0.0
  0
SPLINE
  5
104
100
AcDbEntity
  8
Layer_1
 62
7
100
AcDbSpline
 70
0
 71
3
 72
19
 73
15
 74
13
 40
0.000000
 40
0.000000
 40
0.000000
 40
0.000000
 40
0.913016
 40
1.798953
 40
2.711966
 40
3.624983
 40
4.510921
 40
5.423936
 40
6.336948
 40
7.222885
 40
8.135900
 40
9.048916
 40
9.934853
 40
10.847868
 40
10.847868
 40
10.847868
 40
10.847868
 10
16.940866
 20
257.487633
 30
0.0
 10
16.988827
 20
257.179802
 30
0.0
 10
17.083328
 20
256.573271
 30
0.0
 10
17.778433
 20
255.905456
 30
0.0
 10
18.685243
 20
255.657916
 30
0.0
 10
19.601646
 20
255.905188
 30
0.0
 10
20.268952
 20
256.572803
 30
0.0
 10
20.516720
 20
257.487102
 30
0.0
 10
20.269308
 20
258.401495
 30
0.0
 10
19.602265
 20
259.069371
 30
0.0
 10
18.685958
 20
259.317001
 30
0.0
 10
17.779052
 20
259.069813
 30
0.0
 10
17.083685
 20
258.402272
 30
0.0
 10
16.988947
 20
257.795778
 30
0.0
 10
16.940866
 20
257.487966
 30
0.0
 11
16.940866
 21
257.487633
 31
0.0
 11
17.179178
 21
256.606267
 31
0.0
 11
17.805552
 21
255.979737
 31
0.0
 11
18.686856
 21
255.741208
 31
0.0
 11
19.568234
 21
255.979479
 31
0.0
 11
20.194794
 21
256.605824
 31
0.0
 11
20.433366
 21
257.487119
 31
0.0
 11
20.195138
 21
258.368503
 31
0.0
 11
19.568824
 21
258.995093
 31
0.0
 11
18.687541
 21
259.233708
 31
0.0
 11
17.806141
 21
258.995521
 31
0.0
 11
17.179522
 21
258.369238
 31
0.0
 11
16.940866
 21
257.487966
 31
0.0
  0
LINE
  5
105
100
AcDbEntity
  8
Layer_1
 62
7
100
AcDbLine
 10
10.717859
 20
265.964708
 30
0.0
 11
10.717859
 21
221.006708
 31
0.0
  0
SPLINE
  5
106
100
AcDbEntity
  8
Layer_1
 62
7
100
AcDbSpline
 70
0
 71
3
 72
19
 73
15
 74
13
 40
0.000000
 40
0.000000
 40
0.000000
 40
0.000000
 40
0.913017
 40
1.798954
 40
2.711966
 40
3.624983
 40
4.510921
 40
5.423937
 40
6.336949
 40
7.222885
 40
8.135898
 40
9.048915
 40
9.934852
 40
10.847865
 40
10.847865
 40
10.847865
 40
10.847865
 10
38.975355
 20
273.489630
 30
0.0
 10
39.023317
 20
273.181800
 30
0.0
 10
39.117819
 20
272.575268
 30
0.0
 10
39.812922
 20
271.907453
 30
0.0
 10
40.719732
 20
271.659911
 30
0.0
 10
41.636134
 20
271.907184
 30
0.0
 10
42.303441
 20
272.574799
 30
0.0
 10
42.551208
 20
273.489098
 30
0.0
 10
42.303797
 20
274.403492
 30
0.0
 10
41.636755
 20
275.071367
 30
0.0
 10
40.720449
 20
275.318997
 30
0.0
 10
39.813544
 20
275.071810
 30
0.0
 10
39.118175
 20
274.404270
 30
0.0
 10
39.023437
 20
273.797776
 30
0.0
 10
38.975355
 20
273.489965
 30
0.0
 11
38.975355
 21
273.489630
 31
0.0
 11
39.213668
 21
272.608264
 31
0.0
 11
39.840042
 21
271.981734
 31
0.0
 11
40.721345
 21
271.743204
 31
0.0
 11
41.602723
 21
271.981475
 31
0.0
 11
42.229283
 21
272.607820
 31
0.0
 11
42.467855
 21
273.489115
 31
0.0
 11
42.229627
 21
274.370500
 31
0.0
 11
41.603314
 21
274.997090
 31
0.0
 11
40.722034
 21
275.235704
 31
0.0
 11
39.840633
 21
274.997518
 31
0.0
 11
39.214011
 21
274.371235
 31
0.0
 11
38.975355
 21
273.489965
 31
0.0
  0
LINE
  5
107
100
AcDbEntity
  8
Layer_1
 62
7
100
AcDbLine
 10
70.661874
 20
221.006688
 30
0.0
 11
70.661874
 21
265.964688
 31
0.0
  0
SPLINE
  5
108
100
AcDbEntity
  8
Layer_1
 62
7
100
AcDbSpline
 70
0
 71
3
 72
13
 73
9
 74
7
 40
0.000000
 40
0.000000
 40
0.000000
 40
0.000000
 40
11.587517
 40
23.043223
 40
34.630741
 40
46.218259
 40
57.673963
 40
69.261478
 40
69.261478
 40
69.261478
 40
69.261478
 10
10.721954
 20
221.022004
 30
0.0
 10
13.328543
 20
218.129166
 30
0.0
 10
18.512070
 20
212.376397
 30
0.0
 10
29.158868
 20
207.255897
 30
0.0
 10
40.716125
 20
205.400034
 30
0.0
 10
52.273914
 20
207.252576
 30
0.0
 10
62.922184
 20
212.370012
 30
0.0
 10
68.107365
 20
218.121289
 30
0.0
 10
70.714785
 20
221.013377
 30
0.0
 11
10.721954
 21
221.022004
 31
0.0
 11
19.022380
 21
212.936618
 31
0.0
 11
29.268071
 21
207.812262
 31
0.0
 11
40.716214
 21
206.020454
 31
0.0
 11
52.164873
 21
207.808972
 31
0.0
 11
62.412035
 21
212.930380
 31
0.0
 11
70.714785
 21
221.013377
 31
0.0
  0
SPLINE
  5
109
100
AcDbEntity
  8
Layer_1
 62
7
100
AcDbSpline
 70
0
 71
3
 72
13
 73
9
 74
7
 40
0.000000
 40
0.000000
 40
0.000000
 40
0.000000
 40
11.587518
 40
23.043224
 40
34.630742
 40
46.218255
 40
57.673967
 40
69.261494
 40
69.261494
 40
69.261494
 40
69.261494
 10
70.721257
 20
266.012864
 30
0.0
 10
68.114668
 20
268.905701
 30
0.0
 10
62.931140
 20
274.658470
 30
0.0
 10
52.284341
 20
279.778974
 30
0.0
 10
40.727088
 20
281.634824
 30
0.0
 10
29.169288
 20
279.782338
 30
0.0
 10
18.521024
 20
274.664867
 30
0.0
 10
13.335843
 20
268.913583
 30
0.0
 10
10.728423
 20
266.021491
 30
0.0
 11
70.721257
 21
266.012864
 31
0.0
 11
62.420830
 21
274.098250
 31
0.0
 11
52.175139
 21
279.222606
 31
0.0
 11
40.726995
 21
281.014415
 31
0.0
 11
29.278337
 21
279.225928
 31
0.0
 11
19.031174
 21
274.104505
 31
0.0
 11
10.728423
 21
266.021491
 31
0.0
  0
ENDSEC
  0
SECTION
  2
OBJECTS
  0
DICTIONARY
  5
C
330
0
100
AcDbDictionary
  3
ACAD_GROUP
350
D
  3
ACAD_MLINESTYLE
350
17
  0
DICTIONARY
  5
D
330
C
100
AcDbDictionary
  0
DICTIONARY
  5
1A
330
C
100
AcDbDictionary
  0
DICTIONARY
  5
17
330
C
100
AcDbDictionary
  3
STANDARD
350
18
  0
DICTIONARY
  5
19
330
C
100
AcDbDictionary
  0
ENDSEC
  0
EOF
