  0
SECTION
  2
HEADER
  9
$ACADVER
  1
AC1014
  9
$HANDSEED
  5
FFFF
  9
$MEASUREMENT
 70
     1
  0
ENDSEC
  0
SECTION
  2
TABLES
  0
TABLE
  2
VPORT
  5
8
330
0
100
AcDbSymbolTable
 70
     4
  0
VPORT
  5
2E
330
8
100
AcDbSymbolTableRecord
100
AcDbViewportTableRecord
  2
*ACTIVE
 70
     0
 10
0.0
 20
0.0
 11
1.0
 21
1.0
 12
210.0
 22
148.5
 13
0.0
 23
0.0
 14
10.0
 24
10.0
 15
10.0
 25
10.0
 16
0.0
 26
0.0
 36
1.0
 17
0.0
 27
0.0
 37
0.0
 40
341.0
 41
1.24
 42
50.0
 43
0.0
 44
0.0
 50
0.0
 51
0.0
 71
     0
 72
   100
 73
     1
 74
     3
 75
     0
 76
     0
 77
     0
 78
     0
  0
ENDTAB
  0
TABLE
  2
LTYPE
  5
5
330
0
100
AcDbSymbolTable
 70
     1
  0
LTYPE
  5
14
330
5
100
AcDbSymbolTableRecord
100
AcDbLinetypeTableRecord
  2
BYBLOCK
 70
     0
  3

 72
    65
 73
     0
 40
0.0
  0
LTYPE
  5
15
330
5
100
AcDbSymbolTableRecord
100
AcDbLinetypeTableRecord
  2
BYLAYER
 70
     0
  3

 72
    65
 73
     0
 40
0.0
  0
LTYPE
  5
16
330
5
100
AcDbSymbolTableRecord
100
AcDbLinetypeTableRecord
  2
CONTINUOUS
 70
     0
  3
Solid line
 72
    65
 73
     0
 40
0.0
  0
ENDTAB
  0
TABLE
  2
LAYER
  5
2
100
AcDbSymbolTable
 70
2
  0
LAYER
  5
50
100
AcDbSymbolTableRecord
100
AcDbLayerTableRecord
  2
0
 70
0
  6
CONTINUOUS
  0
LAYER
  5
51
100
AcDbSymbolTableRecord
100
AcDbLayerTableRecord
  2
Layer_1
 70
0
  6
CONTINUOUS
  0
ENDTAB
  0
TABLE
  2
STYLE
  5
3
330
0
100
AcDbSymbolTable
 70
     1
  0
STYLE
  5
11
330
3
100
AcDbSymbolTableRecord
100
AcDbTextStyleTableRecord
  2
STANDARD
 70
     0
 40
0.0
 41
1.0
 50
0.0
 71
     0
 42
2.5
  3
txt
  4

  0
ENDTAB
  0
TABLE
  2
VIEW
  5
6
330
0
100
AcDbSymbolTable
 70
     0
  0
ENDTAB
  0
TABLE
  2
UCS
  5
7
330
0
100
AcDbSymbolTable
 70
     0
  0
ENDTAB
  0
TABLE
  2
APPID
  5
9
330
0
100
AcDbSymbolTable
 70
     2
  0
APPID
  5
12
330
9
100
AcDbSymbolTableRecord
100
AcDbRegAppTableRecord
  2
ACAD
 70
     0
  0
ENDTAB
  0
TABLE
  2
DIMSTYLE
  5
A
330
0
100
AcDbSymbolTable
 70
     1
  0
DIMSTYLE
105
27
330
A
100
AcDbSymbolTableRecord
100
AcDbDimStyleTableRecord
  2
ISO-25
 70
     0
  3

  4

  5

  6

  7

 40
1.0
 41
2.5
 42
0.625
 43
3.75
 44
1.25
 45
0.0
 46
0.0
 47
0.0
 48
0.0
140
2.5
141
2.5
142
0.0
143
0.03937007874016
144
1.0
145
0.0
146
1.0
147
0.625
 71
     0
 72
     0
 73
     0
 74
     0
 75
     0
 76
     0
 77
     1
 78
     8
170
     0
171
     3
172
     1
173
     0
174
     0
175
     0
176
     0
177
     0
178
     0
270
     2
271
     2
272
     2
273
     2
274
     3
340
11
275
     0
280
     0
281
     0
282
     0
283
     0
284
     8
285
     0
286
     0
287
     3
288
     0
  0
ENDTAB
  0
TABLE
  2
BLOCK_RECORD
  5
1
330
0
100
AcDbSymbolTable
 70
     1
  0
BLOCK_RECORD
  5
1F
330
1
100
AcDbSymbolTableRecord
100
AcDbBlockTableRecord
  2
*MODEL_SPACE
  0
BLOCK_RECORD
  5
1B
330
1
100
AcDbSymbolTableRecord
100
AcDbBlockTableRecord
  2
*PAPER_SPACE
  0
ENDTAB
  0
ENDSEC
  0
SECTION
  2
BLOCKS
  0
BLOCK
  5
20
330
1F
100
AcDbEntity
  8
0
100
AcDbBlockBegin
  2
*MODEL_SPACE
 70
     0
 10
0.0
 20
0.0
 30
0.0
  3
*MODEL_SPACE
  1

  0
ENDBLK
  5
21
330
1F
100
AcDbEntity
  8
0
100
AcDbBlockEnd
  0
BLOCK
  5
1C
330
1B
100
AcDbEntity
 67
     1
  8
0
100
AcDbBlockBegin
  2
*PAPER_SPACE
  1

  0
ENDBLK
  5
1D
330
1B
100
AcDbEntity
 67
     1
  8
0
100
AcDbBlockEnd
  0
ENDSEC
  0
SECTION
  2
ENTITIES
  0
LWPOLYLINE
  5
100
100
AcDbEntity
  8
Layer_1
 62
7
100
AcDbPolyline
 90
2
 70
0
 10
104.402058
 20
127.211669
 30
0.0
 10
116.657565
 20
127.211669
 30
0.0
  0
LWPOLYLINE
  5
101
100
AcDbEntity
  8
Layer_1
 62
7
100
AcDbPolyline
 90
2
 70
0
 10
116.657565
 20
134.704665
 30
0.0
 10
103.957565
 20
134.704665
 30
0.0
  0
LWPOLYLINE
  5
102
100
AcDbEntity
  8
Layer_1
 62
7
100
AcDbPolyline
 90
2
 70
0
 10
103.957565
 20
190.203665
 30
0.0
 10
116.657565
 20
190.203665
 30
0.0
  0
LWPOLYLINE
  5
103
100
AcDbEntity
  8
Layer_1
 62
7
100
AcDbPolyline
 90
2
 70
0
 10
116.657565
 20
196.934662
 30
0.0
 10
103.957565
 20
196.934662
 30
0.0
  0
SPLINE
  5
104
100
AcDbEntity
  8
Layer_1
 62
7
100
AcDbSpline
 70
0
 71
3
 72
10
 73
6
 74
4
 40
0.000000
 40
0.000000
 40
0.000000
 40
0.000000
 40
0.233137
 40
0.466274
 40
0.699411
 40
0.699411
 40
0.699411
 40
0.699411
 10
103.929022
 20
127.776973
 30
0.0
 10
103.980488
 20
127.718745
 30
0.0
 10
104.083419
 20
127.602289
 30
0.0
 10
104.238716
 20
127.428403
 30
0.0
 10
104.342938
 20
127.313100
 30
0.0
 10
104.395049
 20
127.255448
 30
0.0
 11
103.929022
 21
127.776973
 31
0.0
 11
104.083569
 21
127.602422
 31
0.0
 11
104.238889
 21
127.428558
 31
0.0
 11
104.395049
 21
127.255448
 31
0.0
  0
LWPOLYLINE
  5
105
100
AcDbEntity
  8
Layer_1
 62
7
100
AcDbPolyline
 90
2
 70
0
 10
182.697558
 20
134.704665
 30
0.0
 10
169.934062
 20
134.704665
 30
0.0
  0
LWPOLYLINE
  5
106
100
AcDbEntity
  8
Layer_1
 62
7
100
AcDbPolyline
 90
2
 70
0
 10
169.934062
 20
127.211669
 30
0.0
 10
182.189558
 20
127.211669
 30
0.0
  0
LWPOLYLINE
  5
107
100
AcDbEntity
  8
Layer_1
 62
7
100
AcDbPolyline
 90
2
 70
0
 10
182.697558
 20
196.934662
 30
0.0
 10
169.934062
 20
196.934662
 30
0.0
  0
LWPOLYLINE
  5
108
100
AcDbEntity
  8
Layer_1
 62
7
100
AcDbPolyline
 90
2
 70
0
 10
169.934062
 20
190.203665
 30
0.0
 10
182.697558
 20
190.203665
 30
0.0
  0
SPLINE
  5
109
100
AcDbEntity
  8
Layer_1
 62
7
100
AcDbSpline
 70
0
 71
3
 72
10
 73
6
 74
4
 40
0.000000
 40
0.000000
 40
0.000000
 40
0.000000
 40
0.233136
 40
0.466273
 40
0.699409
 40
0.699409
 40
0.699409
 40
0.699409
 10
182.182902
 20
127.240600
 30
0.0
 10
182.235020
 20
127.298244
 30
0.0
 10
182.339255
 20
127.413534
 30
0.0
 10
182.494715
 20
127.587274
 30
0.0
 10
182.597660
 20
127.703717
 30
0.0
 10
182.649133
 20
127.761939
 30
0.0
 11
182.182902
 21
127.240600
 31
0.0
 11
182.339106
 21
127.413668
 31
0.0
 11
182.494541
 21
127.587428
 31
0.0
 11
182.649133
 21
127.761939
 31
0.0
  0
LWPOLYLINE
  5
10a
100
AcDbEntity
  8
Layer_1
 62
7
100
AcDbPolyline
 90
2
 70
0
 10
98.306058
 20
196.236169
 30
0.0
 10
98.306058
 20
128.735669
 30
0.0
  0
SPLINE
  5
10b
100
AcDbEntity
  8
Layer_1
 62
7
100
AcDbSpline
 70
0
 71
3
 72
13
 73
9
 74
7
 40
0.000000
 40
0.000000
 40
0.000000
 40
0.000000
 40
17.376370
 40
34.555078
 40
51.931447
 40
69.307815
 40
86.486524
 40
103.862894
 40
103.862894
 40
103.862894
 40
103.862894
 10
98.309034
 20
128.752301
 30
0.0
 10
102.217814
 20
124.414269
 30
0.0
 10
109.990910
 20
115.787551
 30
0.0
 10
125.956601
 20
108.108971
 30
0.0
 10
143.287591
 20
105.325961
 30
0.0
 10
160.619381
 20
108.103986
 30
0.0
 10
176.587278
 20
115.777977
 30
0.0
 10
184.362853
 20
124.402462
 30
0.0
 10
188.272879
 20
128.739371
 30
0.0
 11
98.309034
 21
128.752301
 31
0.0
 11
110.756160
 21
116.627645
 31
0.0
 11
126.120358
 21
108.943283
 31
0.0
 11
143.287725
 21
106.256328
 31
0.0
 11
160.455863
 21
108.938345
 31
0.0
 11
175.822270
 21
116.618292
 31
0.0
 11
188.272879
 21
128.739371
 31
0.0
  0
LWPOLYLINE
  5
10c
100
AcDbEntity
  8
Layer_1
 62
7
100
AcDbPolyline
 90
2
 70
0
 10
188.285569
 20
128.735669
 30
0.0
 10
188.285569
 20
196.236169
 30
0.0
  0
SPLINE
  5
10d
100
AcDbEntity
  8
Layer_1
 62
7
100
AcDbSpline
 70
0
 71
3
 72
13
 73
9
 74
7
 40
0.000000
 40
0.000000
 40
0.000000
 40
0.000000
 40
17.376370
 40
34.555078
 40
51.931447
 40
69.307815
 40
86.486524
 40
103.862894
 40
103.862894
 40
103.862894
 40
103.862894
 10
188.282582
 20
196.219529
 30
0.0
 10
184.373802
 20
200.557561
 30
0.0
 10
176.600706
 20
209.184279
 30
0.0
 10
160.635016
 20
216.862859
 30
0.0
 10
143.304026
 20
219.645869
 30
0.0
 10
125.972235
 20
216.867844
 30
0.0
 10
110.004338
 20
209.193853
 30
0.0
 10
102.228764
 20
200.569369
 30
0.0
 10
98.318737
 20
196.232460
 30
0.0
 11
188.282582
 21
196.219529
 31
0.0
 11
175.835456
 21
208.344185
 31
0.0
 11
160.471258
 21
216.028548
 31
0.0
 11
143.303892
 21
218.715502
 31
0.0
 11
126.135753
 21
216.033485
 31
0.0
 11
110.769347
 21
208.353539
 31
0.0
 11
98.318737
 21
196.232460
 31
0.0
  0
LWPOLYLINE
  5
10e
100
AcDbEntity
  8
Layer_1
 62
7
100
AcDbPolyline
 90
2
 70
0
 10
103.957565
 20
196.934662
 30
0.0
 10
103.703565
 20
196.934662
 30
0.0
  0
LWPOLYLINE
  5
10f
100
AcDbEntity
  8
Layer_1
 62
7
100
AcDbPolyline
 90
4
 70
0
 10
99.068058
 20
190.711669
 30
0.0
 10
99.068058
 20
190.203665
 30
0.0
 10
103.957565
 20
190.203665
 30
0.0
 10
103.957565
 20
196.934662
 30
0.0
  0
SPLINE
  5
110
100
AcDbEntity
  8
Layer_1
 62
7
100
AcDbSpline
 70
0
 71
3
 72
10
 73
6
 74
4
 40
0.000000
 40
0.000000
 40
0.000000
 40
0.000000
 40
2.601398
 40
5.202000
 40
7.803399
 40
7.803399
 40
7.803399
 40
7.803399
 10
103.740084
 20
196.979153
 30
0.0
 10
103.179885
 20
196.317116
 30
0.0
 10
102.059657
 20
194.993244
 30
0.0
 10
100.499186
 20
192.909521
 30
0.0
 10
99.543997
 20
191.462054
 30
0.0
 10
99.066330
 20
190.738210
 30
0.0
 11
103.740084
 21
196.979153
 31
0.0
 11
102.079484
 21
194.976735
 31
0.0
 11
100.520607
 21
192.895142
 31
0.0
 11
99.066330
 21
190.738210
 31
0.0
  0
LWPOLYLINE
  5
111
100
AcDbEntity
  8
Layer_1
 62
7
100
AcDbPolyline
 90
4
 70
0
 10
103.957565
 20
127.719669
 30
0.0
 10
103.957565
 20
134.704665
 30
0.0
 10
99.068058
 20
134.704665
 30
0.0
 10
99.068058
 20
134.196662
 30
0.0
  0
LWPOLYLINE
  5
112
100
AcDbEntity
  8
Layer_1
 62
7
100
AcDbPolyline
 90
2
 70
0
 10
169.553065
 20
190.203665
 30
0.0
 10
169.934062
 20
190.203665
 30
0.0
  0
SPLINE
  5
113
100
AcDbEntity
  8
Layer_1
 62
7
100
AcDbSpline
 70
0
 71
3
 72
10
 73
6
 74
4
 40
0.000000
 40
0.000000
 40
0.000000
 40
0.000000
 40
2.702033
 40
5.403173
 40
8.105207
 40
8.105207
 40
8.105207
 40
8.105207
 10
99.058098
 20
134.246522
 30
0.0
 10
99.554462
 20
133.494808
 30
0.0
 10
100.547026
 20
131.991630
 30
0.0
 10
102.173543
 20
129.831372
 30
0.0
 10
103.343810
 20
128.461991
 30
0.0
 10
103.929040
 20
127.777187
 30
0.0
 11
99.058098
 21
134.246522
 31
0.0
 11
100.570128
 21
132.007158
 31
0.0
 11
102.194852
 21
129.849283
 31
0.0
 11
103.929040
 21
127.777187
 31
0.0
  0
LWPOLYLINE
  5
114
100
AcDbEntity
  8
Layer_1
 62
7
100
AcDbPolyline
 90
2
 70
0
 10
116.657565
 20
134.704665
 30
0.0
 10
116.657565
 20
117.242165
 30
0.0
  0
SPLINE
  5
115
100
AcDbEntity
  8
Layer_1
 62
7
100
AcDbSpline
 70
0
 71
3
 72
10
 73
6
 74
4
 40
0.000000
 40
0.000000
 40
0.000000
 40
0.000000
 40
6.806183
 40
13.598179
 40
20.404362
 40
20.404362
 40
20.404362
 40
20.404362
 10
116.673408
 20
117.256806
 30
0.0
 10
118.673650
 20
116.181850
 30
0.0
 10
122.669962
 20
114.034180
 30
0.0
 10
129.123624
 20
111.769595
 30
0.0
 10
133.585686
 20
110.949226
 30
0.0
 10
135.819045
 20
110.538614
 30
0.0
 11
116.673408
 21
117.256806
 31
0.0
 11
122.750449
 21
114.191890
 31
0.0
 11
129.159332
 21
111.943018
 31
0.0
 11
135.819045
 21
110.538614
 31
0.0
  0
LWPOLYLINE
  5
116
100
AcDbEntity
  8
Layer_1
 62
7
100
AcDbPolyline
 90
2
 70
0
 10
135.834558
 20
110.511162
 30
0.0
 10
135.390065
 20
107.526665
 30
0.0
  0
SPLINE
  5
117
100
AcDbEntity
  8
Layer_1
 62
7
100
AcDbSpline
 70
0
 71
3
 72
10
 73
6
 74
4
 40
0.000000
 40
0.000000
 40
0.000000
 40
0.000000
 40
5.313283
 40
10.620512
 40
15.933793
 40
15.933793
 40
15.933793
 40
15.933793
 10
135.342705
 20
107.527687
 30
0.0
 10
137.102962
 20
107.324322
 30
0.0
 10
140.621470
 20
106.917822
 30
0.0
 10
145.948912
 20
106.916803
 30
0.0
 10
149.467576
 20
107.321956
 30
0.0
 10
151.227910
 20
107.524649
 30
0.0
 11
135.342705
 21
107.527687
 31
0.0
 11
140.631596
 21
107.019161
 31
0.0
 11
145.938826
 21
107.018146
 31
0.0
 11
151.227910
 21
107.524649
 31
0.0
  0
LWPOLYLINE
  5
118
100
AcDbEntity
  8
Layer_1
 62
7
100
AcDbPolyline
 90
2
 70
0
 10
151.265065
 20
107.526665
 30
0.0
 10
150.757065
 20
110.511162
 30
0.0
  0
LWPOLYLINE
  5
119
100
AcDbEntity
  8
Layer_1
 62
7
100
AcDbPolyline
 90
6
 70
0
 10
169.934062
 20
117.242165
 30
0.0
 10
169.934062
 20
134.704665
 30
0.0
 10
156.027565
 20
134.704665
 30
0.0
 10
156.027565
 20
148.230162
 30
0.0
 10
169.553065
 20
148.230162
 30
0.0
 10
169.553065
 20
190.203665
 30
0.0
  0
SPLINE
  5
11a
100
AcDbEntity
  8
Layer_1
 62
7
100
AcDbSpline
 70
0
 71
3
 72
10
 73
6
 74
4
 40
0.000000
 40
0.000000
 40
0.000000
 40
0.000000
 40
6.806196
 40
13.598204
 40
20.404400
 40
20.404400
 40
20.404400
 40
20.404400
 10
150.757806
 20
110.536390
 30
0.0
 10
152.991285
 20
110.946368
 30
0.0
 10
157.453589
 20
111.765470
 30
0.0
 10
163.907905
 20
114.028226
 30
0.0
 10
167.904835
 20
116.174765
 30
0.0
 10
169.905385
 20
117.249154
 30
0.0
 11
150.757806
 21
110.536390
 31
0.0
 11
157.417930
 21
111.938904
 31
0.0
 11
163.827463
 21
114.185959
 31
0.0
 11
169.905385
 21
117.249154
 31
0.0
  0
LWPOLYLINE
  5
11b
100
AcDbEntity
  8
Layer_1
 62
7
100
AcDbPolyline
 90
2
 70
0
 10
169.934062
 20
190.203665
 30
0.0
 10
169.934062
 20
207.729665
 30
0.0
  0
SPLINE
  5
11c
100
AcDbEntity
  8
Layer_1
 62
7
100
AcDbSpline
 70
0
 71
3
 72
10
 73
6
 74
4
 40
0.000000
 40
0.000000
 40
0.000000
 40
0.000000
 40
6.806201
 40
13.598213
 40
20.404413
 40
20.404413
 40
20.404413
 40
20.404413
 10
169.914009
 20
207.717648
 30
0.0
 10
167.913662
 20
208.792418
 30
0.0
 10
163.917136
 20
210.939717
 30
0.0
 10
157.463245
 20
213.203700
 30
0.0
 10
153.001094
 20
214.023649
 30
0.0
 10
150.767691
 20
214.434052
 30
0.0
 11
169.914009
 21
207.717648
 31
0.0
 11
163.836664
 21
210.781999
 31
0.0
 11
157.427554
 21
213.030273
 31
0.0
 11
150.767691
 21
214.434052
 31
0.0
  0
LWPOLYLINE
  5
11d
100
AcDbEntity
  8
Layer_1
 62
7
100
AcDbPolyline
 90
2
 70
0
 10
150.757065
 20
214.460658
 30
0.0
 10
151.265065
 20
217.381669
 30
0.0
  0
SPLINE
  5
11e
100
AcDbEntity
  8
Layer_1
 62
7
100
AcDbSpline
 70
0
 71
3
 72
10
 73
6
 74
4
 40
0.000000
 40
0.000000
 40
0.000000
 40
0.000000
 40
5.313267
 40
10.620480
 40
15.933746
 40
15.933746
 40
15.933746
 40
15.933746
 10
151.243935
 20
217.444698
 30
0.0
 10
149.483665
 20
217.647904
 30
0.0
 10
145.965130
 20
218.054084
 30
0.0
 10
140.637704
 20
218.054621
 30
0.0
 10
137.119088
 20
217.649150
 30
0.0
 10
135.358777
 20
217.446299
 30
0.0
 11
151.243935
 21
217.444698
 31
0.0
 11
145.955013
 21
217.952744
 31
0.0
 11
140.647800
 21
217.953279
 31
0.0
 11
135.358777
 21
217.446299
 31
0.0
  0
LWPOLYLINE
  5
11f
100
AcDbEntity
  8
Layer_1
 62
7
100
AcDbPolyline
 90
2
 70
0
 10
135.390065
 20
217.381669
 30
0.0
 10
135.834558
 20
214.460658
 30
0.0
  0
SPLINE
  5
120
100
AcDbEntity
  8
Layer_1
 62
7
100
AcDbSpline
 70
0
 71
3
 72
10
 73
6
 74
4
 40
0.000000
 40
0.000000
 40
0.000000
 40
0.000000
 40
6.806216
 40
13.598243
 40
20.404459
 40
20.404459
 40
20.404459
 40
20.404459
 10
135.829087
 20
214.434916
 30
0.0
 10
133.595638
 20
214.024734
 30
0.0
 10
129.133396
 20
213.205226
 30
0.0
 10
122.679266
 20
210.941879
 30
0.0
 10
118.682518
 20
208.794973
 30
0.0
 10
116.682060
 20
207.720399
 30
0.0
 11
135.829087
 21
214.434916
 31
0.0
 11
129.169070
 21
213.031795
 31
0.0
 11
122.759723
 21
210.784153
 31
0.0
 11
116.682060
 21
207.720399
 31
0.0
  0
SPLINE
  5
121
100
AcDbEntity
  8
Layer_1
 62
7
100
AcDbSpline
 70
0
 71
3
 72
19
 73
15
 74
13
 40
0.000000
 40
0.000000
 40
0.000000
 40
0.000000
 40
2.739045
 40
5.396856
 40
8.135901
 40
10.874946
 40
13.532756
 40
16.271801
 40
19.010846
 40
21.668655
 40
24.407700
 40
27.146748
 40
29.804558
 40
32.543602
 40
32.543602
 40
32.543602
 40
32.543602
 10
148.534558
 20
117.463420
 30
0.0
 10
148.390757
 20
118.386924
 30
0.0
 10
148.107418
 20
120.206542
 30
0.0
 10
146.022282
 20
122.210174
 30
0.0
 10
143.301921
 20
122.953041
 30
0.0
 10
140.552646
 20
122.211475
 30
0.0
 10
138.550549
 20
120.208811
 30
0.0
 10
137.806997
 20
117.465983
 30
0.0
 10
138.548979
 20
114.722730
 30
0.0
 10
140.549931
 20
112.718923
 30
0.0
 10
143.298783
 20
111.975787
 30
0.0
 10
146.019569
 20
112.717098
 30
0.0
 10
148.105851
 20
114.719537
 30
0.0
 10
148.390229
 20
116.538993
 30
0.0
 10
148.534558
 20
117.462414
 30
0.0
 11
148.534558
 21
117.463420
 31
0.0
 11
147.819861
 21
120.107579
 31
0.0
 11
145.940907
 21
121.987337
 31
0.0
 11
143.297054
 21
122.703165
 31
0.0
 11
140.652861
 21
121.988594
 31
0.0
 11
138.773014
 21
120.109730
 31
0.0
 11
138.057058
 21
117.465911
 31
0.0
 11
138.771501
 21
114.821685
 31
0.0
 11
140.650274
 21
112.941747
 31
0.0
 11
143.294058
 21
112.225665
 31
0.0
 11
145.938322
 21
112.939982
 31
0.0
 11
147.818350
 21
114.818665
 31
0.0
 11
148.534558
 21
117.462414
 31
0.0
  0
LWPOLYLINE
  5
122
100
AcDbEntity
  8
Layer_1
 62
7
100
AcDbPolyline
 90
7
 70
0
 10
116.657565
 20
207.729665
 30
0.0
 10
116.657565
 20
190.203665
 30
0.0
 10
130.564058
 20
190.203665
 30
0.0
 10
130.564058
 20
176.741665
 30
0.0
 10
117.038562
 20
176.741665
 30
0.0
 10
117.038562
 20
134.704665
 30
0.0
 10
116.657565
 20
134.704665
 30
0.0
  0
SPLINE
  5
123
100
AcDbEntity
  8
Layer_1
 62
7
100
AcDbSpline
 70
0
 71
3
 72
19
 73
15
 74
13
 40
0.000000
 40
0.000000
 40
0.000000
 40
0.000000
 40
2.705844
 40
5.331438
 40
8.037285
 40
10.743128
 40
13.368722
 40
16.074566
 40
18.780412
 40
21.406006
 40
24.111851
 40
26.817695
 40
29.443290
 40
32.149135
 40
32.149135
 40
32.149135
 40
32.149135
 10
148.471058
 20
199.949925
 30
0.0
 10
148.329000
 20
200.862235
 30
0.0
 10
148.049096
 20
202.659797
 30
0.0
 10
145.989235
 20
204.639142
 30
0.0
 10
143.301848
 20
205.373005
 30
0.0
 10
140.585896
 20
204.640429
 30
0.0
 10
138.608068
 20
202.662041
 30
0.0
 10
137.873528
 20
199.952459
 30
0.0
 10
138.606517
 20
197.242457
 30
0.0
 10
140.583216
 20
195.262938
 30
0.0
 10
143.298748
 20
194.528808
 30
0.0
 10
145.986553
 20
195.261136
 30
0.0
 10
148.047547
 20
197.239302
 30
0.0
 10
148.328478
 20
199.036705
 30
0.0
 10
148.471058
 20
199.948934
 30
0.0
 11
148.471058
 21
199.949925
 31
0.0
 11
147.765024
 21
202.562033
 31
0.0
 11
145.908846
 21
204.419006
 31
0.0
 11
143.297038
 21
205.126158
 31
0.0
 11
140.684897
 21
204.420249
 31
0.0
 11
138.827836
 21
202.564160
 31
0.0
 11
138.120558
 21
199.952389
 31
0.0
 11
138.826342
 21
197.340212
 31
0.0
 11
140.682342
 21
195.483061
 31
0.0
 11
143.294081
 21
194.775658
 31
0.0
 11
145.906290
 21
195.481317
 31
0.0
 11
147.763531
 21
197.337228
 31
0.0
 11
148.471058
 21
199.948934
 31
0.0
  0
LWPOLYLINE
  5
124
100
AcDbEntity
  8
Layer_1
 62
7
100
AcDbPolyline
 90
4
 70
0
 10
182.697558
 20
196.934662
 30
0.0
 10
182.697558
 20
190.203665
 30
0.0
 10
187.523555
 20
190.203665
 30
0.0
 10
187.523555
 20
190.711669
 30
0.0
  0
LWPOLYLINE
  5
125
100
AcDbEntity
  8
Layer_1
 62
7
100
AcDbPolyline
 90
2
 70
0
 10
182.888072
 20
196.934662
 30
0.0
 10
182.697558
 20
196.934662
 30
0.0
  0
SPLINE
  5
126
100
AcDbEntity
  8
Layer_1
 62
7
100
AcDbSpline
 70
0
 71
3
 72
10
 73
6
 74
4
 40
0.000000
 40
0.000000
 40
0.000000
 40
0.000000
 40
2.601398
 40
5.201999
 40
7.803398
 40
7.803398
 40
7.803398
 40
7.803398
 10
187.533518
 20
190.725308
 30
0.0
 10
187.056062
 20
191.449292
 30
0.0
 10
186.101296
 20
192.897037
 30
0.0
 10
184.541434
 20
194.981217
 30
0.0
 10
183.421593
 20
196.305415
 30
0.0
 10
182.861587
 20
196.967616
 30
0.0
 11
187.533518
 21
190.725308
 31
0.0
 11
186.079871
 21
192.882664
 31
0.0
 11
184.521603
 21
194.964713
 31
0.0
 11
182.861587
 21
196.967616
 31
0.0
  0
LWPOLYLINE
  5
127
100
AcDbEntity
  8
Layer_1
 62
7
100
AcDbPolyline
 90
2
 70
0
 10
182.697558
 20
134.704665
 30
0.0
 10
182.697558
 20
127.719669
 30
0.0
  0
LWPOLYLINE
  5
128
100
AcDbEntity
  8
Layer_1
 62
7
100
AcDbPolyline
 90
3
 70
0
 10
187.523555
 20
134.196662
 30
0.0
 10
187.523555
 20
134.704665
 30
0.0
 10
182.697558
 20
134.704665
 30
0.0
  0
LWPOLYLINE
  5
129
100
AcDbEntity
  8
Layer_1
 62
7
100
AcDbPolyline
 90
5
 70
0
 10
187.523555
 20
151.214669
 30
0.0
 10
187.523555
 20
173.693662
 30
0.0
 10
183.904051
 20
173.693662
 30
0.0
 10
183.904051
 20
151.214669
 30
0.0
 10
187.523555
 20
151.214669
 30
0.0
  0
SPLINE
  5
12a
100
AcDbEntity
  8
Layer_1
 62
7
100
AcDbSpline
 70
0
 71
3
 72
10
 73
6
 74
4
 40
0.000000
 40
0.000000
 40
0.000000
 40
0.000000
 40
2.702032
 40
5.403169
 40
8.105202
 40
8.105202
 40
8.105202
 40
8.105202
 10
182.652622
 20
127.765952
 30
0.0
 10
183.238048
 20
128.450588
 30
0.0
 10
184.408704
 20
129.819634
 30
0.0
 10
186.035839
 20
131.979424
 30
0.0
 10
187.028831
 20
133.482319
 30
0.0
 10
187.525410
 20
134.233890
 30
0.0
 11
182.652622
 21
127.765952
 31
0.0
 11
184.387401
 21
129.837550
 31
0.0
 11
186.012741
 21
131.994959
 31
0.0
 11
187.525410
 21
134.233890
 31
0.0
  0
LWPOLYLINE
  5
12b
100
AcDbEntity
  8
Layer_1
 62
7
100
AcDbPolyline
 90
5
 70
0
 10
99.068058
 20
173.693662
 30
0.0
 10
99.068058
 20
151.214669
 30
0.0
 10
102.751062
 20
151.214669
 30
0.0
 10
102.751062
 20
173.693662
 30
0.0
 10
99.068058
 20
173.693662
 30
0.0
  0
ENDSEC
  0
SECTION
  2
OBJECTS
  0
DICTIONARY
  5
C
330
0
100
AcDbDictionary
  3
ACAD_GROUP
350
D
  3
ACAD_MLINESTYLE
350
17
  0
DICTIONARY
  5
D
330
C
100
AcDbDictionary
  0
DICTIONARY
  5
1A
330
C
100
AcDbDictionary
  0
DICTIONARY
  5
17
330
C
100
AcDbDictionary
  3
STANDARD
350
18
  0
DICTIONARY
  5
19
330
C
100
AcDbDictionary
  0
ENDSEC
  0
EOF
